HIERARCHY
ROOT hip
{
  OFFSET 0 0 0
  CHANNELS 6 Xposition Yposition Zposition Zrotation Yrotation Xrotation
  JOINT abdomen
  {
    OFFSET 0 20.6881 -0.73152
    CHANNELS 3 Zrotation Xrotation Yrotation
    JOINT chest
    {
      OFFSET 0 11.7043 -0.48768
      CHANNELS 3 Zrotation Xrotation Yrotation
      JOINT neck
      {
        OFFSET 0 22.1894 -2.19456
        CHANNELS 3 Zrotation Xrotation Yrotation
        JOINT head
        {
          OFFSET -0.24384 7.07133 1.2192
          CHANNELS 3 Zrotation Xrotation Yrotation
          JOINT leftEye
          {
            OFFSET 4.14528 8.04674 8.04672
            CHANNELS 3 Zrotation Xrotation Yrotation
            End Site
            {
              OFFSET 1 0 0
            }
          }
          JOINT rightEye
          {
            OFFSET -3.6576 8.04674 8.04672
            CHANNELS 3 Zrotation Xrotation Yrotation
            End Site
            {
              OFFSET 1 0 0
            }
          }
        }
      }
      JOINT rCollar
      {
        OFFSET -2.68224 19.2634 -4.8768
        CHANNELS 3 Zrotation Xrotation Yrotation
        JOINT rShldr
        {
          OFFSET -8.77824 -1.95073 1.46304
          CHANNELS 3 Zrotation Xrotation Yrotation
          JOINT rForeArm
          {
            OFFSET -28.1742 -1.7115 0.48768
            CHANNELS 3 Zrotation Xrotation Yrotation
            JOINT rHand
            {
              OFFSET -22.5879 0.773209 7.07136
              CHANNELS 3 Zrotation Xrotation Yrotation
              JOINT rThumb1
              {
                OFFSET -1.2192 -0.487915 3.41376
                CHANNELS 3 Zrotation Xrotation Yrotation
                JOINT rThumb2
                {
                  OFFSET -3.37035 -0.52449 3.41376
                  CHANNELS 3 Zrotation Xrotation Yrotation
                  End Site
                  {
                    OFFSET -1.78271 -1.18214 1.43049
                  }
                }
              }
              JOINT rIndex1
              {
                OFFSET -7.75947 0.938293 5.60832
                CHANNELS 3 Zrotation Xrotation Yrotation
                JOINT rIndex2
                {
                  OFFSET -2.54057 -0.884171 1.56538
                  CHANNELS 3 Zrotation Xrotation Yrotation
                  End Site
                  {
                    OFFSET -1.62519 -0.234802 1.16502
                  }
                }
              }
              JOINT rMid1
              {
                OFFSET -8.24714 1.18213 3.41376
                CHANNELS 3 Zrotation Xrotation Yrotation
                JOINT rMid2
                {
                  OFFSET -3.10165 -0.590103 1.0647
                  CHANNELS 3 Zrotation Xrotation Yrotation
                  End Site
                  {
                    OFFSET -2.48547 -0.328903 0.83742
                  }
                }
              }
              JOINT rRing1
              {
                OFFSET -8.82822 0.546677 1.51678
                CHANNELS 3 Zrotation Xrotation Yrotation
                JOINT rRing2
                {
                  OFFSET -2.60934 -0.819778 -0.0198488
                  CHANNELS 3 Zrotation Xrotation Yrotation
                  End Site
                  {
                    OFFSET -2.33842 -0.294052 0.168128
                  }
                }
              }
              JOINT rPinky1
              {
                OFFSET -8.27202 -0.0477905 -0.4584
                CHANNELS 3 Zrotation Xrotation Yrotation
                JOINT rPinky2
                {
                  OFFSET -1.82734 -0.647385 -0.700984
                  CHANNELS 3 Zrotation Xrotation Yrotation
                  End Site
                  {
                    OFFSET -1.69225 -0.51767 -0.607171
                  }
                }
              }
            }
          }
        }
      }
      JOINT lCollar
      {
        OFFSET 2.68224 19.2634 -4.8768
        CHANNELS 3 Zrotation Xrotation Yrotation
        JOINT lShldr
        {
          OFFSET 8.77824 -1.95073 1.46304
          CHANNELS 3 Zrotation Xrotation Yrotation
          JOINT lForeArm
          {
            OFFSET 28.1742 -1.7115 0.48768
            CHANNELS 3 Zrotation Xrotation Yrotation
            JOINT lHand
            {
              OFFSET 22.5879 0.773209 7.07136
              CHANNELS 3 Zrotation Xrotation Yrotation
              JOINT lThumb1
              {
                OFFSET 1.2192 -0.487915 3.41376
                CHANNELS 3 Zrotation Xrotation Yrotation
                JOINT lThumb2
                {
                  OFFSET 3.37035 -0.52449 3.41376
                  CHANNELS 3 Zrotation Xrotation Yrotation
                  End Site
                  {
                    OFFSET 1.78271 -1.18214 1.43049
                  }
                }
              }
              JOINT lIndex1
              {
                OFFSET 7.75947 0.938293 5.60832
                CHANNELS 3 Zrotation Xrotation Yrotation
                JOINT lIndex2
                {
                  OFFSET 2.54057 -0.884171 1.56538
                  CHANNELS 3 Zrotation Xrotation Yrotation
                  End Site
                  {
                    OFFSET 1.62519 -0.234802 1.16502
                  }
                }
              }
              JOINT lMid1
              {
                OFFSET 8.24714 1.18213 3.41376
                CHANNELS 3 Zrotation Xrotation Yrotation
                JOINT lMid2
                {
                  OFFSET 3.10165 -0.590103 1.0647
                  CHANNELS 3 Zrotation Xrotation Yrotation
                  End Site
                  {
                    OFFSET 2.48547 -0.328903 0.83742
                  }
                }
              }
              JOINT lRing1
              {
                OFFSET 8.82822 0.546677 1.51678
                CHANNELS 3 Zrotation Xrotation Yrotation
                JOINT lRing2
                {
                  OFFSET 2.60934 -0.819778 -0.0198488
                  CHANNELS 3 Zrotation Xrotation Yrotation
                  End Site
                  {
                    OFFSET 2.33842 -0.294052 0.168128
                  }
                }
              }
              JOINT lPinky1
              {
                OFFSET 8.27202 -0.0477905 -0.4584
                CHANNELS 3 Zrotation Xrotation Yrotation
                JOINT lPinky2
                {
                  OFFSET 1.82734 -0.647385 -0.700984
                  CHANNELS 3 Zrotation Xrotation Yrotation
                  End Site
                  {
                    OFFSET 1.69225 -0.51767 -0.607171
                  }
                }
              }
            }
          }
        }
      }
    }
  }
  JOINT rButtock
  {
    OFFSET -8.77824 4.35084 1.2192
    CHANNELS 3 Zrotation Xrotation Yrotation
    JOINT rThigh
    {
      OFFSET 0 -1.70687 -2.19456
      CHANNELS 3 Zrotation Xrotation Yrotation
      JOINT rShin
      {
        OFFSET 0 -36.8199 0.73152
        CHANNELS 3 Zrotation Xrotation Yrotation
        JOINT rFoot
        {
          OFFSET 0.73152 -45.1104 -5.12064
          CHANNELS 3 Zrotation Xrotation Yrotation
          End Site
          {
            OFFSET -1.1221 -3.69964 12.103
          }
        }
      }
    }
  }
  JOINT lButtock
  {
    OFFSET 8.77824 4.35084 1.2192
    CHANNELS 3 Zrotation Xrotation Yrotation
    JOINT lThigh
    {
      OFFSET 0 -1.70687 -2.19456
      CHANNELS 3 Zrotation Xrotation Yrotation
      JOINT lShin
      {
        OFFSET 0 -36.8199 0.73152
        CHANNELS 3 Zrotation Xrotation Yrotation
        JOINT lFoot
        {
          OFFSET -0.73152 -45.1104 -5.12064
          CHANNELS 3 Zrotation Xrotation Yrotation
          End Site
          {
            OFFSET 1.1221 -3.69964 12.103
          }
        }
      }
    }
  }
}
MOTION
Frames:	4
Frame Time:	0.03333
0.028899998869746923 67.45949983596802 0.12700000079348683 -13.414500067641505 -24.72420050291542 5.982899934604438 8.933429811702288 14.525500345583072 11.548500070356837 -1.4768600011635342 -7.396440026737134 3.3413400679144623 -2.613070080444795 11.846999827653905 -0.751201974082015 7.299090194270589 -24.445899322541372 0.27786500876251824 -0.0 0.0 0.0 -0.0 0.0 0.0 -3.7292100702985705e-13 -3.53041011531201e-13 1.4004400457669565e-13 64.28819933626121 44.90479866049286 -0.9077050333814262 -28.047299269990894 -30.877099577093244 68.62629836494644 -0.005887259960622337 -2.1902600264798493 -0.30797298955203695 2.2262000279442526e-09 -1.71623008910306e-09 -3.756159938204064e-09 3.85071981673065e-09 -2.9994699994590592e-09 -6.4860701758070534e-09 2.2262000279442526e-09 -1.71623008910306e-09 -3.756159938204064e-09 7.730910121524428 5.474879855648998 0.41731399283890674 2.2262000279442526e-09 -1.71623008910306e-09 -3.756159938204064e-09 2.90554006136521 0.9651829962377875 0.10290200252939893 2.226209967177632e-09 -1.71623008910306e-09 -3.756159938204064e-09 10.278599710243157 0.7318009818271524 0.025912300303053633 2.2262000279442526e-09 -1.7162199510850127e-09 -3.756159938204064e-09 2.221669932038622 -0.7334870246959406 -0.20891999872313852 -3.732419937953478e-13 -3.5304399621309967e-13 1.3979500202951673e-13 -59.584500771872726 29.936200037788968 -21.897699177182187 22.729300321840626 -16.892799515679886 -45.808801517900726 0.06438990085300271 -7.221449726427761 1.0203699642361386 -1.1924499582022016e-10 2.5897700287210176e-09 8.010419786393431e-10 -2.1655999256749902e-10 4.454589867786693e-09 1.3877799719036828e-09 -1.192409952787849e-10 2.5897700287210176e-09 8.010479918755377e-10 -7.730910121524428 5.474879855648998 -0.41731399283890674 -1.1924200162616456e-10 2.589779967954397e-09 8.010419786393431e-10 -2.90554006136521 0.9651829962377875 -0.10290200252939893 -1.192540032504704e-10 2.5897700287210176e-09 8.010430222588479e-10 -10.278599710243157 0.7318009818271524 -0.025912300303053633 -1.192369947373496e-10 2.589779967954397e-09 8.010350211759773e-10 -2.221669932038622 -0.7334870246959406 0.20891999872313852 -2.0321699793705798e-16 0.0 -3.882510030490358e-19 -3.621910151753423 2.469309966341659 -7.129229792914718 -0.289562001200856 47.37129949809494 2.0730401065006787 -20.804500079764964 -20.26270044649558 -36.18390043009928 2.0321699793705798e-16 0.0 3.882510030490358e-19 67.9245032579168 -55.210000250005926 59.40610306094116 4.596780063781581 78.83570313625549 -4.777450093272643 0.7983249966306668 -5.611130176759705 2.6173799298110727
0.0678999989759177 67.35609769821167 0.279000005684793 -13.427999936536036 -24.763600449142636 6.047700073694465 8.954249935839778 14.71380012326386 11.54460003234076 -1.5075300051361245 -7.43933019963023 3.34155009623144 -2.6408700175838047 11.799899696911144 -0.7114669750594955 7.1722996851603495 -24.573799737391738 0.3420379977485202 -0.0 0.0 0.0 -0.0 0.0 0.0 -3.652149951502565e-13 -4.057189969743535e-13 -9.422080216221908e-14 63.66870117854106 45.17710122722834 -0.21678400105705617 -28.040499816672146 -30.845899272964626 68.58759851310914 -0.001585850050954705 -1.1790499862509325 -0.16573999635756748 2.6048299551377474e-09 -2.91388008027287e-09 -3.661959859925818e-09 4.506149839727898e-09 -5.069139823893755e-09 -6.325369867540764e-09 2.6048299551377474e-09 -2.91388008027287e-09 -3.661970196728533e-09 7.730910121524428 5.474879855648998 0.41731399283890674 2.6048200159043676e-09 -2.91388008027287e-09 -3.661970196728533e-09 2.90554006136521 0.9651829962377875 0.10290200252939893 2.6048299551377474e-09 -2.91388008027287e-09 -3.661959859925818e-09 10.278599710243157 0.7318009818271524 0.025912300303053633 2.6048200159043676e-09 -2.913869942254823e-09 -3.661959859925818e-09 2.221669932038622 -0.7334870246959406 -0.20891999872313852 -3.654139982092064e-13 -4.057210110279924e-13 -9.444129857069524e-14 -59.567698506514496 29.8766988448344 -21.923599254514873 22.79609957192335 -17.0011007027069 -45.999500399527484 0.06587550034801354 -7.304219666337269 1.0321900334816687 3.8406399804708806e-11 7.0563102343693065e-09 1.883289916454937e-09 4.6970900543428313e-11 1.2152299903314642e-08 3.260120033729011e-09 3.840759872473522e-11 7.0563197760333515e-09 1.883300054472984e-09 -7.730910121524428 5.474879855648998 -0.41731399283890674 3.840739994006763e-11 7.0563197760333515e-09 1.883300054472984e-09 -2.90554006136521 0.9651829962377875 -0.10290200252939893 3.839760047715745e-11 7.0563102343693065e-09 1.883300054472984e-09 -10.278599710243157 0.7318009818271524 -0.025912300303053633 3.841769947065721e-11 7.0563197760333515e-09 1.883289916454937e-09 -2.221669932038622 -0.7334870246959406 0.20891999872313852 -2.0321699793705798e-16 0.0 -3.882510030490358e-19 -3.89499989779075 2.4853299615965123 -7.3330396495401375 -0.2907160096858973 47.40280033054704 2.0717500545211927 -20.713299978872367 -20.180299336801255 -36.122100878489 2.0321699793705798e-16 0.0 3.882510030490358e-19 68.06679658889567 -55.30939999299712 59.49240250110427 4.779540131158666 79.1876969351321 -4.959580075698795 0.9189870117864063 -5.91089010395864 3.038080095652719
0.15569999814033508 67.25659966468811 0.42600000742822886 -13.40769976054911 -24.926500460847443 6.112799887334326 8.930019839759158 14.893999296589016 11.512900270629085 -1.517069965137634 -7.533660234709983 3.332909906931374 -2.68125009595692 11.764700317023483 -0.6456640254610936 7.029459939047873 -24.72729970125131 0.4565800033253696 -0.0 0.0 0.0 -0.0 0.0 0.0 -3.4903700009989416e-13 -4.0870098537958397e-13 -3.7520601154748627e-13 62.78650028496387 45.57899980327565 0.7248849884056914 -28.03280048593025 -30.810699893076965 68.54419949112288 -0.0003812359881552872 -0.5575210211914609 -0.07835689732384492 2.388409906976233e-09 -5.282520056918461e-09 -2.233430025089222e-09 4.1313500955095556e-09 -9.155600365767805e-09 -3.857620030112085e-09 2.388409906976233e-09 -5.282520056918461e-09 -2.2334399643226014e-09 7.730910121524428 5.474879855648998 0.41731399283890674 2.388399967742853e-09 -5.282510117685081e-09 -2.2334399643226014e-09 2.90554006136521 0.9651829962377875 0.10290200252939893 2.388409906976233e-09 -5.282510117685081e-09 -2.233430025089222e-09 10.278599710243157 0.7318009818271524 0.025912300303053633 2.388409906976233e-09 -5.282510117685081e-09 -2.233430025089222e-09 2.221669932038622 -0.7334870246959406 -0.20891999872313852 -3.4911799902816813e-13 -4.0870098537958397e-13 -3.7540499034072967e-13 -59.61559862316379 29.779798951079428 -21.8080000103597 22.88569970100287 -17.14770046795747 -46.25579983303763 0.06747860044108975 -7.391449719774794 1.0446600379154078 9.846459581285213e-10 1.2257600117431195e-08 2.4838299267594873e-09 1.677930048413544e-09 2.114170038420257e-08 4.302069946161127e-09 9.846429763585074e-10 1.2257600117431195e-08 2.4838400647775345e-09 -7.730910121524428 5.474879855648998 -0.41731399283890674 9.846449642051834e-10 1.2257499929958729e-08 2.4838299267594873e-09 -2.90554006136521 0.9651829962377875 -0.10290200252939893 9.846370128184797e-10 1.2257499929958729e-08 2.4838299267594873e-09 -10.278599710243157 0.7318009818271524 -0.025912300303053633 9.846579846009106e-10 1.2257600117431195e-08 2.4838400647775345e-09 -2.221669932038622 -0.7334870246959406 0.20891999872313852 -2.0321699793705798e-16 0.0 -3.882510030490358e-19 -4.224220138427242 2.4692100748250474 -7.510569926447109 -0.2909350026261608 47.382699083819695 2.0668600659622864 -20.57790001631333 -20.029399967468162 -36.05750094931902 2.0321699793705798e-16 0.0 3.882510030490358e-19 68.2160020713146 -55.408301132178906 59.69099708141157 4.973459873865907 79.53850228109312 -5.1538801745654395 1.0791899525427016 -6.275240141930623 3.586709918092116
0.24729999713599682 67.13290214538574 0.6010000128298998 -13.348300166658449 -24.970399794190406 6.371200030901071 8.853689914463327 14.973600028723636 11.400300333293194 -1.5198199700522104 -7.700040227796909 3.2971199291239186 -2.752379899416844 11.727100125642563 -0.5514170198684379 6.9276499930533095 -24.831499359681736 0.6357329837687479 -0.0 0.0 0.0 -0.0 0.0 0.0 -2.8312500791524167e-13 -2.688550011007253e-13 -7.898029812279376e-13 61.6096996721057 46.16849977016111 1.958320035757733 -28.0378001844027 -30.836900498733133 68.58089809753336 -0.0008788950394969711 -0.7786029854848137 -0.10943699946122021 4.3027100327907714e-10 -1.2826099617444017e-08 2.8985599447262632e-09 7.413489805044675e-10 -2.2171799351106886e-08 5.014159960531306e-09 4.3027299112575304e-10 -1.2826099617444017e-08 2.898550005492884e-09 7.730910121524428 5.474879855648998 0.41731399283890674 4.3026697788955836e-10 -1.2826099617444017e-08 2.898550005492884e-09 2.90554006136521 0.9651829962377875 0.10290200252939893 4.3027701651527176e-10 -1.2826099617444017e-08 2.8985599447262632e-09 10.278599710243157 0.7318009818271524 0.025912300303053633 4.302690154324012e-10 -1.2826099617444017e-08 2.8985599447262632e-09 2.221669932038622 -0.7334870246959406 -0.20891999872313852 -2.832690006175717e-13 -2.688569908886577e-13 -7.89995020029124e-13 -59.739402632059445 29.606599014106248 -21.464499551716003 23.012599493139827 -17.35780050192165 -46.62050119886504 0.06865069825526095 -7.452620040207782 1.0534100438507232 4.147250085931527e-09 1.7866899506417925e-08 1.2876799646913222e-09 7.155949856291525e-09 3.0912100379619935e-08 2.2452799766936845e-09 4.147250085931527e-09 1.7866899506417925e-08 1.2876900033170355e-09 -7.730910121524428 5.474879855648998 -0.41731399283890674 4.147260025164906e-09 1.7866899506417925e-08 1.2876900033170355e-09 -2.90554006136521 0.9651829962377875 -0.10290200252939893 4.147250085931527e-09 1.7866899506417925e-08 1.2876900033170355e-09 -10.278599710243157 0.7318009818271524 -0.025912300303053633 4.147260025164906e-09 1.7866899506417925e-08 1.2876900033170355e-09 -2.221669932038622 -0.7334870246959406 0.20891999872313852 -2.0321699793705798e-16 0.0 -3.882510030490358e-19 -4.568109917853629 2.3374800582844197 -7.613289995148577 -0.2900219984332005 47.30050117225317 2.058389991061236 -20.42900018485976 -19.757300598860486 -36.080098630188004 2.0321699793705798e-16 0.0 3.882510030490358e-19 68.47990009027639 -55.582501691865495 60.128996622316976 5.179860079734053 79.88760007976164 -5.361160194176048 1.2865999591909516 -6.754879931111014 4.262230141158363
